<?xml version="1.0" encoding="UTF-8" standalone="no"?>
<!-- Created with Inkscape (http://www.inkscape.org/) -->

<svg
   width="39.999996mm"
   height="40.000004mm"
   viewBox="0 0 39.999996 40.000004"
   version="1.1"
   id="svg1"
   xmlns="http://www.w3.org/2000/svg"
   xmlns:svg="http://www.w3.org/2000/svg">
  <defs
     id="defs1" />
  <g
     id="layer1"
     transform="translate(-20,-19.999999)">
    <path
       style="opacity:1;fill:#000000;fill-opacity:1;stroke-width:0.264583"
       d="M 21.000002,56.355339 56.355342,21 c 0.603236,-0.608505 2.304486,-0.605035 2.827003,-0.0014 0.608989,0.70353 0.573892,2.202273 0.0014,2.829842 L 23.828408,59.183781 c -0.70563,0.66727 -2.208161,0.662271 -2.847707,-0.04447 -0.663961,-0.733725 -0.62231,-2.055363 0.01933,-2.78397 z"
       id="path17" />
    <path
       style="opacity:1;fill:#000000;fill-opacity:1;stroke-width:0.264583"
       d="m 23.818863,21.047515 35.355339,35.35534 c 0.608505,0.603236 0.605035,2.304486 0.0014,2.827003 -0.70353,0.608989 -2.202273,0.573892 -2.829842,0.0014 L 20.990421,23.875921 c -0.66727,-0.70563 -0.662271,-2.208161 0.04447,-2.847707 0.733725,-0.663961 2.055363,-0.62231 2.78397,0.01933 z"
       id="path18" />
  </g>
</svg>
