<?xml version="1.0" encoding="UTF-8" standalone="no"?>
<!-- Created with Inkscape (http://www.inkscape.org/) -->

<svg
   width="39.999996mm"
   height="40.000004mm"
   viewBox="0 0 39.999996 40.000004"
   version="1.1"
   id="svg1"
   xmlns="http://www.w3.org/2000/svg"
   xmlns:svg="http://www.w3.org/2000/svg">
  <defs
     id="defs1" />
  <g
     id="layer1"
     transform="translate(-20,-19.999999)">
    <circle
       style="fill:#0f0d23;fill-opacity:1;stroke-width:1.32291"
       id="circle2"
       cx="39.999996"
       cy="39.999996"
       r="19.999996" />
    <circle
       style="fill:#d0d69b;fill-opacity:1;stroke-width:1.05833"
       id="path6-36"
       cx="40"
       cy="40"
       r="16" />
    <ellipse
       style="fill:#0f0d23;fill-opacity:1;stroke-width:0.914311"
       id="path6"
       cx="44.478844"
       cy="36.195156"
       rx="13.822657"
       ry="13.822656" />
    <path
       style="opacity:1;fill:#d0d69b;fill-opacity:1;stroke-width:0.264583"
       id="path2"
       d="m 38.685481,36.452108 -1.502111,-0.870098 -0.985659,1.428946 -0.25628,-1.716895 -1.731743,0.120314 1.182534,-1.270835 -1.17379,-1.278916 1.730877,0.13219 0.268051,-1.715097 0.975834,1.435673 1.508044,-0.859775 -0.514032,1.658065 1.612449,0.642975 -1.616822,0.631901 z"
       transform="matrix(0.94663234,0,0,0.94663234,5.622754,2.0886441)" />
    <path
       style="fill:#d0d69b;fill-opacity:1;stroke-width:0.264583"
       id="path2-1"
       d="m 38.685481,36.452108 -1.502111,-0.870098 -0.985659,1.428946 -0.25628,-1.716895 -1.731743,0.120314 1.182534,-1.270835 -1.17379,-1.278916 1.730877,0.13219 0.268051,-1.715097 0.975834,1.435673 1.508044,-0.859775 -0.514032,1.658065 1.612449,0.642975 -1.616822,0.631901 z"
       transform="matrix(0.94663234,0,0,0.94663234,10.885447,10.129514)" />
    <path
       style="fill:#d0d69b;fill-opacity:1;stroke-width:0.264583"
       id="path2-0"
       d="m 38.685481,36.452108 -1.502111,-0.870098 -0.985659,1.428946 -0.25628,-1.716895 -1.731743,0.120314 1.182534,-1.270835 -1.17379,-1.278916 1.730877,0.13219 0.268051,-1.715097 0.975834,1.435673 1.508044,-0.859775 -0.514032,1.658065 1.612449,0.642975 -1.616822,0.631901 z"
       transform="matrix(0.94663234,0,0,0.94663234,10.914399,-3.3348388)" />
    <path
       style="fill:#d0d69b;fill-opacity:1;stroke-width:0.264583"
       id="path2-9"
       d="m 38.685481,36.452108 -1.502111,-0.870098 -0.985659,1.428946 -0.25628,-1.716895 -1.731743,0.120314 1.182534,-1.270835 -1.17379,-1.278916 1.730877,0.13219 0.268051,-1.715097 0.975834,1.435673 1.508044,-0.859775 -0.514032,1.658065 1.612449,0.642975 -1.616822,0.631901 z"
       transform="matrix(0.94663234,0,0,0.94663234,16.206043,2.0886441)" />
  </g>
</svg>
