<?xml version="1.0" encoding="UTF-8" standalone="no"?>
<!-- Created with Inkscape (http://www.inkscape.org/) -->

<svg
   width="39.999996mm"
   height="40.000004mm"
   viewBox="0 0 39.999996 40.000004"
   version="1.1"
   id="svg1"
   xmlns="http://www.w3.org/2000/svg"
   xmlns:svg="http://www.w3.org/2000/svg">
  <defs
     id="defs1" />
  <g
     id="layer1"
     transform="translate(-20,-19.999999)">
    <path
       style="fill:#d45500;stroke-width:0.264583"
       d="m 26,19.999999 h 28 c 2.000001,0 3.333842,0.658016 4.333842,1.658016 1,1 1.666159,2.341984 1.666159,4.341984 v 27.999998 c 0,2.000001 -0.674301,3.3257 -1.674301,4.3257 -1,1 -2.325699,1.674301 -4.3257,1.674301 H 26 c -1.999999,0 -3.337912,-0.666159 -4.337912,-1.666159 C 20.662087,57.333839 20,55.999998 20,53.999997 V 25.999999 c 0,-2 0.658016,-3.341984 1.658017,-4.341984 1,-1 2.341984,-1.658016 4.341983,-1.658016 z"
       id="path1" />
    <ellipse
       style="fill:#ffffff;stroke-width:0.264583"
       id="path6"
       cx="30.000002"
       cy="50"
       rx="4"
       ry="3.9999998" />
    <path
       style="display:inline;fill:#ffffff;stroke-width:0.264583"
       d="m 26,25.999999 v 4.999999 c 7.000001,10e-7 12.114288,2.587374 16.263458,6.736544 4.14917,4.14917 6.736543,9.263457 6.736541,16.263455 H 54 C 54.000001,44.999999 49.960557,38.375145 45.29389,33.708478 40.627224,29.041812 34.000001,25.999999 26,25.999999 Z"
       id="path7" />
    <path
       style="fill:#ffffff;stroke-width:0.264583"
       d="M 26,35.999999 V 41 c 4.000001,-10e-7 7.025723,1.640943 9.19239,3.80761 2.166667,2.166666 3.807611,5.192389 3.807611,9.192387 h 5 c 0,-5.999998 -2.272078,-9.727922 -5.272078,-12.727922 -3,-2.999999 -6.727922,-5.272076 -12.727923,-5.272076 z"
       id="path8" />
  </g>
</svg>
