<?xml version="1.0" encoding="UTF-8" standalone="no"?>
<!-- Created with Inkscape (http://www.inkscape.org/) -->

<svg
   width="39.999996mm"
   height="40.000004mm"
   viewBox="0 0 39.999996 40.000004"
   version="1.1"
   id="svg1"
   xmlns="http://www.w3.org/2000/svg"
   xmlns:svg="http://www.w3.org/2000/svg">
  <defs
     id="defs1" />
  <g
     id="layer1"
     transform="translate(-20,-19.999999)">
    <circle
       style="fill:#a89d8b;fill-opacity:1;stroke-width:1.32291"
       id="path6-3"
       cx="39.999996"
       cy="39.999996"
       r="19.999996" />
    <circle
       style="fill:#f5ede3;fill-opacity:1;stroke-width:1.32291"
       id="circle2"
       cx="39.999996"
       cy="39.999996"
       r="19.999996" />
    <ellipse
       style="fill:#3297f4;fill-opacity:1;stroke-width:0.264583"
       id="path6"
       cx="40"
       cy="54"
       rx="4"
       ry="3.9999998" />
    <path
       style="fill:#3297f4;fill-opacity:1;stroke-width:0.283615"
       d="m 40,48 c -0.799996,-4.61e-4 -1.724919,-0.395924 -2.144837,-1.076851 -0.936584,-1.518737 -0.656516,-4.687999 0.429913,-6.103421 1.54858,-2.01752 5.393398,-2.423089 6.941674,-4.440843 1.213474,-1.581429 0.996675,-3.610494 0,-5.336784 -1.033954,-1.790862 -3.304677,-2.779873 -5.372585,-2.779873 -2.040453,0 -4.080975,2.730925 -6.051902,2.202817 -1.186571,-0.317941 -2.053396,-1.469105 -1.735455,-2.655677 0.715184,-2.669104 5.059363,-4.144891 7.822623,-4.144891 3.156307,0 6.836827,2.001018 8.414979,4.73446 1.894054,3.280598 2.306055,8.358725 0,11.364033 -1.248563,1.627158 -4.588098,2.002397 -5.836661,3.629556 -0.608025,0.792393 0.20358,2.683158 -0.321303,3.532911 C 41.725961,47.606176 40.800133,48.000461 40,48 Z"
       id="path2" />
  </g>
</svg>
