<?xml version="1.0" encoding="UTF-8" standalone="no"?>
<!-- Created with Inkscape (http://www.inkscape.org/) -->

<svg
   width="39.999996mm"
   height="40.000004mm"
   viewBox="0 0 39.999996 40.000004"
   version="1.1"
   id="svg1"
   xmlns="http://www.w3.org/2000/svg"
   xmlns:svg="http://www.w3.org/2000/svg">
  <defs
     id="defs1" />
  <g
     id="layer1"
     transform="translate(-20,-19.999999)">
    <path
       style="fill:#fdb953;fill-opacity:1;stroke-width:0.277665"
       d="m 20.285242,57.379817 1.311861,-2.623611 2.623721,-5.247221 5.247442,-10.494442 5.247443,-10.494443 2.623721,-5.247221 1.148157,-2.276344 c 0.695887,-1.37967 2.346068,-1.281833 3.000626,0.04677 l 1.098437,2.229573 2.623499,5.24722 5.246997,10.494443 5.246998,10.494442 2.623498,5.247221 1.31175,2.623611 c 0.720119,1.4403 0.225579,2.62361 -1.311861,2.62361 h -2.623609 -5.247221 -10.49444 -10.49444 -5.247219 -2.623611 c -1.324836,0 -1.927779,-1.391604 -1.311749,-2.62361 z"
       id="path1" />
    <ellipse
       style="fill:#ffffff;stroke-width:0.264583"
       id="path6"
       cx="40"
       cy="54"
       rx="4"
       ry="3.9999998" />
    <path
       style="fill:#ffffff;fill-opacity:1;stroke-width:0.264583"
       d="m 39.995101,29.99755 c 0.745987,-0.0012 1.647731,0.342976 2.002522,0.999194 2.713429,5.018728 0.256813,16.999479 -1.992643,16.999479 -2.266066,0 -4.711633,-11.96998 -2.009389,-16.993072 0.353447,-0.657009 1.253464,-1.004421 1.99951,-1.005601 z"
       id="path2" />
  </g>
</svg>
